<svg width="30" height="30" viewBox="0 0 30 30" fill="none" xmlns="http://www.w3.org/2000/svg">
<path opacity="0.5" d="M6.27344 24H11.5186L14.8691 16.1973L18.5107 24H23.7559L27.9102 7.36133C29.2369 9.59886 30 12.2101 30 15C30 23.2843 23.2843 30 15 30C6.71573 30 0 23.2843 0 15C0 12.2071 0.763428 9.59261 2.09277 7.35352L6.27344 24ZM15 0C18.3773 0 21.4938 1.11641 24.001 3H24L21.0752 16.2559L17.4912 8.92285H12.5381L9.33301 16.1973L6.5 3H5.99902C8.5062 1.11641 11.6227 0 15 0Z" fill="#FFD500"/>
</svg>
