<svg width="104" height="60" viewBox="0 0 104 60" fill="none" xmlns="http://www.w3.org/2000/svg">
<path d="M38.414 7.69531L31.9253 31.2869H23.8028L20.0231 15.9803L16.1112 31.2869H8.03342L1.5 7.69531H8.85037L12.244 24.5632L16.2839 7.69531H24.063L28.1435 24.4793L31.4966 7.69531H38.4161H38.414Z" fill="white"/>
<path d="M63.6865 21.2246H47.0554C47.1684 22.6894 47.6505 23.81 48.4952 24.5864C49.3399 25.3629 50.3786 25.749 51.6115 25.749C53.4438 25.749 54.7215 24.9872 55.436 23.4637H63.2578C62.8568 25.0145 62.1337 26.41 61.0885 27.6503C60.0433 28.8926 58.7315 29.8642 57.1552 30.5672C55.5789 31.2723 53.8192 31.6249 51.8717 31.6249C49.5212 31.6249 47.4308 31.1317 45.5964 30.1433C43.7642 29.157 42.3308 27.7489 41.3005 25.9169C40.2703 24.0849 39.752 21.9423 39.752 19.4891C39.752 17.036 40.2617 14.8955 41.2792 13.0634C42.2945 11.2314 43.7194 9.82333 45.5538 8.83493C47.386 7.84862 49.4913 7.35547 51.8717 7.35547C54.2522 7.35547 56.253 7.83603 58.0596 8.79296C59.8641 9.75198 61.2741 11.1181 62.2915 12.8935C63.309 14.6709 63.8188 16.7422 63.8188 19.1093C63.8188 19.785 63.7761 20.4901 63.6886 21.2246H63.6865ZM56.2956 17.208C56.2956 15.9678 55.8647 14.9815 55.0073 14.2491C54.1477 13.5167 53.0726 13.1495 51.7822 13.1495C50.4917 13.1495 49.5126 13.502 48.668 14.205C47.8211 14.9101 47.2986 15.9111 47.1002 17.208H56.2956Z" fill="white"/>
<path d="M90.1514 21.2246H73.5202C73.6333 22.6894 74.1153 23.81 74.96 24.5864C75.8047 25.3629 76.8435 25.749 78.0764 25.749C79.9086 25.749 81.1863 24.9872 81.9009 23.4637H89.7226C89.3216 25.0145 88.5985 26.41 87.5533 27.6503C86.5082 28.8926 85.1964 29.8642 83.6201 30.5672C82.0438 31.2723 80.284 31.6249 78.3366 31.6249C75.986 31.6249 73.8956 31.1317 72.0613 30.1433C70.229 29.157 68.7956 27.7489 67.7654 25.9169C66.733 24.0849 66.2168 21.9423 66.2168 19.4891C66.2168 17.036 66.7266 14.8955 67.744 13.0634C68.7593 11.2314 70.1842 9.82333 72.0186 8.83493C73.8509 7.84862 75.9561 7.35547 78.3366 7.35547C80.717 7.35547 82.7178 7.83603 84.5245 8.79296C86.329 9.75198 87.7389 11.1181 88.7564 12.8935C89.7738 14.6709 90.2836 16.7422 90.2836 19.1093C90.2836 19.785 90.2409 20.4901 90.1535 21.2246H90.1514ZM82.7605 17.208C82.7605 15.9678 82.3296 14.9815 81.4721 14.2491C80.6125 13.5167 79.5375 13.1495 78.247 13.1495C76.9565 13.1495 75.9775 13.502 75.1328 14.205C74.286 14.9101 73.7634 15.9111 73.565 17.208H82.7605Z" fill="white"/>
<path d="M101.5 0V31.2869H94.1514V0H101.5Z" fill="white"/>
<path d="M85.7105 37.8262C85.7105 47.843 76.8018 56.087 65.9737 56.087C55.1455 56.087 46.2368 47.8452 46.2368 37.8262" stroke="white" stroke-width="7" stroke-miterlimit="10"/>
</svg>
