<svg width="48" height="28" viewBox="0 0 48 28" fill="none" xmlns="http://www.w3.org/2000/svg">
<rect width="48" height="28" rx="5" fill="#15BE63"/>
<g opacity="0.2" clip-path="url(#clip0_1804_9490)">
<path d="M42.4127 10.2871H35.1746L29.0645 20.8381H34.1369L32.1937 28.6047L42.4997 18.7724H35.6999L42.4127 10.2871Z" fill="white"/>
<path d="M47.3304 16.579H40.2309L46.615 8.5127C46.7471 8.34189 46.6279 8.09375 46.412 8.09375H34.0531C33.9629 8.09375 33.8759 8.14209 33.8307 8.22266L25.4808 22.644C25.3809 22.8148 25.5034 23.0308 25.7032 23.0308H31.3235L28.4425 34.555C28.3812 34.8063 28.6842 34.9836 28.8711 34.8031L47.5077 17.0205C47.6753 16.8626 47.5625 16.579 47.3304 16.579ZM32.1904 28.606L34.1337 20.8394H29.0612L35.1714 10.2884H42.4094L35.6967 18.7736H42.4965L32.1904 28.606Z" fill="white"/>
</g>
<defs>
<clipPath id="clip0_1804_9490">
<rect width="23" height="20" fill="white" transform="translate(25 8)"/>
</clipPath>
</defs>
</svg>
