<svg width="33" height="20" viewBox="0 0 33 20" fill="none" xmlns="http://www.w3.org/2000/svg">
<path d="M11.7557 0.0330272C15.3458 0.0330272 18.936 0.0460267 22.5257 0.02436C23.5115 0.0182933 24.4974 0.0126601 25.4833 9.34215e-05C25.5674 -0.00120658 25.6507 0.0113602 25.7344 0.0191602C26.1352 0.0551269 26.2395 0.385327 26.3198 0.733294C27.1677 4.39193 26.8985 8.28846 25.392 11.7296C24.9903 12.6469 24.4999 13.511 23.9578 14.3439C23.5317 14.9986 23.0674 15.6239 22.5593 16.2159C22.1804 16.6574 21.7821 17.0791 21.3594 17.473C20.5641 18.2144 19.7199 18.8908 18.7358 19.3554C18.2138 19.6019 17.6666 19.7562 17.0972 19.8385C16.5294 19.9209 15.959 19.92 15.3896 19.907C12.2419 19.8368 9.0942 19.8914 5.94652 19.8767C4.31716 19.8693 2.68738 19.8749 1.05802 19.8767C0.887685 19.8767 0.71987 19.8628 0.559206 19.8086C0.225259 19.6968 0.0229558 19.3952 0.00402934 18.9953C-0.00143831 18.8817 0.000244201 18.7678 0.000244201 18.6542C0.000244201 12.835 0.000244201 7.01576 0.000244201 1.19696C0.000244201 1.03056 0.00360898 0.86546 0.0351531 0.698627C0.11128 0.299527 0.41915 0.0616274 0.809877 0.0373608C0.945727 0.0286941 1.08242 0.0325934 1.21869 0.0325934C4.73102 0.0325934 8.24293 0.0325939 11.7553 0.0317272L11.7557 0.0330272Z" fill="#2F4653"/>
<path d="M26.2129 15.8179C26.4085 15.7633 26.5675 15.648 26.7168 15.525C27.354 15.0006 27.8276 14.3372 28.2318 13.6144C29.6887 11.0075 30.5467 8.08248 30.7149 5.06475C30.7322 4.75751 30.7339 4.45115 30.7431 4.14435C30.7444 4.09885 30.733 4.05032 30.7717 4.00092C30.8874 4.03558 30.9917 4.09408 31.0859 4.17988C32.2135 5.20948 32.4044 7.16468 32.2825 8.60985C31.9931 12.031 30.1597 15.6823 27.2161 17.4485C27.1483 17.4893 27.0798 17.5287 27.0104 17.5668C26.5557 17.8169 26.0834 18.0132 25.5972 18.1813C25.5055 18.2129 25.4138 18.245 25.323 18.2766C25.7238 18.2537 26.2781 18.1817 26.9061 17.969C28.5851 17.4004 29.9225 16.1173 30.8512 14.5985C31.0796 14.225 31.2844 13.8384 31.4846 13.4485C31.4968 13.425 31.509 13.4003 31.5401 13.3934C31.5771 13.3943 31.5923 13.4246 31.6049 13.4545C32.0713 14.5647 31.951 15.7031 31.2937 16.7062C29.9995 18.6801 27.2648 19.8583 25.0033 19.8678C22.9189 19.8765 20.8349 19.8739 18.7505 19.8735C18.6848 19.8735 18.5852 19.909 18.5671 19.8137C18.5477 19.7123 18.6541 19.7244 18.7151 19.6958C21.8775 18.1978 24.2703 15.5843 25.8298 12.3928C27.1849 9.61951 27.8659 6.48045 27.6005 3.37605C27.5155 2.38155 27.3363 1.39528 27.0609 0.438049C27.0444 0.380415 27.0213 0.324081 27.0104 0.265148C26.9725 0.0588809 27.0318 0.0068818 27.2367 0.0276818C27.7485 0.0792485 28.2002 0.274681 28.6027 0.600981C29.3644 1.21848 29.6567 2.33822 29.8325 3.27942C30.1614 5.04222 29.8254 6.99482 29.4254 8.71948C28.9051 10.9641 28.0269 13.1577 26.7606 15.0665C26.6255 15.2702 26.4695 15.4587 26.3244 15.6545C26.2853 15.7074 26.25 15.7629 26.2129 15.817V15.8179Z" fill="url(#paint0_linear_1216_5979)"/>
<path d="M8.18993 8.41455C8.18657 8.13765 8.10329 7.85901 7.86608 7.70345C7.63518 7.55221 7.32815 7.55525 7.14646 7.78535C7.13173 7.80398 7.10019 7.83561 7.10944 7.86291C7.1187 7.89021 7.1759 7.88371 7.19987 7.89628C7.24109 7.91751 7.25749 7.95998 7.25623 8.00548C7.25455 8.05835 7.25413 8.56318 7.25202 9.25911C6.65773 9.25565 6.06302 9.25174 5.46873 9.24828C5.45737 9.09618 5.45317 8.92545 5.46368 8.73998C5.47336 8.56881 5.49481 8.39851 5.52719 8.23038C5.54149 8.15671 5.55789 8.08348 5.5764 8.01111C5.59659 7.93138 5.65253 7.83345 5.64664 7.74981C5.6458 7.73855 5.64327 7.72728 5.63654 7.71861C5.62056 7.69825 5.58986 7.70171 5.56546 7.70821C5.41405 7.74808 5.26685 7.83128 5.15077 7.93918C5.11502 7.97211 5.01954 8.06571 4.93332 8.22518C4.70452 8.64725 4.68644 9.24524 4.68644 9.24524C4.67466 9.63178 4.65994 10.4152 5.05992 11.2286C5.05992 11.2286 5.34003 11.7989 5.74085 11.9393C5.81992 11.967 5.84137 11.9488 5.8481 11.9393C5.87922 11.8981 5.81235 11.827 5.79258 11.7954C5.75599 11.7373 5.72487 11.6758 5.69795 11.6121C5.64243 11.4808 5.60542 11.3417 5.57808 11.2017C5.49439 10.7753 5.44013 10.3437 5.45191 9.90824H7.25202V11.5449C7.25202 11.6533 7.29492 11.7577 7.39208 11.8088C7.45054 11.8396 7.51699 11.8504 7.58219 11.8587C7.69616 11.8734 7.81267 11.8812 7.92539 11.8587C7.99142 11.8457 8.05745 11.821 8.10666 11.7737C8.18615 11.6979 8.18741 11.5948 8.18741 11.4912C8.18741 10.6692 8.19498 9.84715 8.19372 9.02511C8.19372 8.82101 8.19204 8.61735 8.18993 8.41325V8.41455Z" fill="url(#paint1_linear_1216_5979)"/>
<path d="M5.72362 12.1453C4.99726 11.9265 4.71378 11.1335 4.55859 10.4458C4.52494 10.2959 4.49255 10.1481 4.47321 9.99513C4.41517 9.53276 4.41769 9.02446 4.56321 8.57812C4.45218 8.60369 4.40213 8.70206 4.33736 8.78179C4.10057 9.07299 4.08206 9.41316 4.0707 9.75116C4.04379 10.545 4.32516 11.1097 4.38783 11.231C4.52915 11.5036 4.68308 11.683 4.7285 11.7345C4.89001 11.9187 5.05236 12.0465 5.17685 12.1315C5.07801 12.1063 4.93838 12.0591 4.78907 11.9642C4.6507 11.8762 4.55186 11.7783 4.48709 11.7033C4.3933 11.5798 4.32726 11.4711 4.28436 11.3939C4.1687 11.1877 4.02486 10.9307 3.95168 10.5862C3.93107 10.4896 3.91719 10.3912 3.88018 10.3873C3.82676 10.3817 3.76662 10.5775 3.75358 10.6196C3.71152 10.7561 3.70101 10.8822 3.70143 10.9489C3.70437 11.2089 3.89364 11.7146 4.34577 12.0578C4.34577 12.0578 4.74112 12.3577 5.41743 12.3806C5.44519 12.3815 5.6088 12.3776 5.73035 12.2879C5.79007 12.2437 5.8296 12.1761 5.72362 12.1445V12.1453Z" fill="url(#paint2_linear_1216_5979)"/>
<path d="M4.56422 8.57422C4.56422 8.57422 4.56372 8.57619 4.56323 8.57717C4.56422 8.57717 4.5652 8.57668 4.56618 8.57618L4.56422 8.57422Z" fill="url(#paint3_linear_1216_5979)"/>
<path d="M4.56406 8.57442L4.56616 8.57659L4.57457 8.56445L4.56406 8.57442Z" fill="url(#paint4_linear_1216_5979)"/>
<path d="M17.4858 8.31788C17.4887 8.22255 17.4858 8.08128 17.4525 7.91142C17.4492 7.89322 17.445 7.84988 17.4235 7.79962C17.4122 7.77232 17.3802 7.69995 17.3057 7.65055C17.2658 7.62455 17.2212 7.60895 17.1741 7.60938C17.1413 7.60938 17.1085 7.61199 17.0761 7.61199C17.0307 7.61199 16.9853 7.61328 16.9398 7.61372C16.8515 7.61458 16.7632 7.61242 16.6753 7.61588C16.5962 7.61892 16.5222 7.64665 16.4658 7.70775C16.399 7.78012 16.3455 7.88325 16.2572 8.10425C16.2425 8.14065 16.2307 8.17185 16.2227 8.19308C16.1891 8.26805 15.7142 9.32885 15.5347 9.63565C15.5216 9.65862 15.4922 9.70758 15.456 9.70585C15.4194 9.70758 15.3904 9.65862 15.3774 9.63565C15.1982 9.32842 14.7229 8.26805 14.6893 8.19308C14.6813 8.17185 14.6695 8.14108 14.6548 8.10425C14.5665 7.88325 14.513 7.78012 14.4462 7.70775C14.3902 7.64665 14.3162 7.61892 14.2367 7.61588C14.1484 7.61285 14.0601 7.61458 13.9722 7.61372C13.9267 7.61372 13.8813 7.61242 13.8359 7.61199C13.8031 7.61199 13.7703 7.60982 13.7379 7.60938C13.6908 7.60938 13.6466 7.62455 13.6063 7.65055C13.5318 7.69995 13.4998 7.77232 13.4885 7.79962C13.467 7.84988 13.4628 7.89322 13.4595 7.91142C13.4267 8.08172 13.4233 8.22298 13.4262 8.31788C13.3918 9.40945 13.3573 10.5002 13.3224 11.5917C13.3236 11.6099 13.327 11.635 13.3367 11.6632C13.3909 11.8231 13.5877 11.9016 13.7392 11.9037C13.8923 11.9059 14.0752 11.8309 14.14 11.6862C14.1408 11.6845 14.1526 11.6563 14.1589 11.6251C14.2039 11.4028 14.23 9.61268 14.2397 8.83312C14.6544 9.70845 14.9786 10.3628 15.1288 10.6514C15.1591 10.7108 15.2243 10.8299 15.3441 10.8707C15.3786 10.8828 15.4169 10.8893 15.456 10.8897C15.4951 10.8897 15.5334 10.8828 15.5679 10.8707C15.6877 10.8299 15.7525 10.7108 15.7832 10.6514C15.933 10.3628 16.2576 9.70845 16.6723 8.83312C16.682 9.61312 16.7081 11.4028 16.7531 11.6251C16.7594 11.6563 16.7712 11.6845 16.772 11.6862C16.8368 11.8309 17.0197 11.9059 17.1728 11.9037C17.3247 11.9016 17.5211 11.8231 17.5753 11.6632C17.585 11.635 17.5884 11.6099 17.5896 11.5917C17.5552 10.5002 17.5207 9.40945 17.4858 8.31788Z" fill="url(#paint5_linear_1216_5979)"/>
<path d="M10.099 10.9023C10.1082 10.9036 10.1175 10.9054 10.1259 10.908C10.1259 10.9088 10.1259 10.9093 10.125 10.9101C10.1179 10.9223 10.0935 10.9153 10.099 10.9023Z" fill="white"/>
<path d="M12.4963 7.74105C12.4101 7.62882 12.2629 7.62449 12.1212 7.62059C11.987 7.61669 11.8162 7.61192 11.7094 7.73412C11.6501 7.80215 11.6337 7.88232 11.6286 7.93085C11.6261 8.73642 11.6236 9.54155 11.6211 10.3471C11.6223 10.426 11.6148 10.5746 11.5374 10.738C11.4558 10.9105 11.3401 11.0084 11.3107 11.0322C11.3107 11.0322 11.1138 11.1926 10.8564 11.2138C10.8308 11.216 10.8034 11.2168 10.8034 11.2168C10.7967 11.2168 10.79 11.2168 10.7833 11.2173C10.7765 11.2173 10.7698 11.2173 10.7631 11.2168C10.7631 11.2168 10.7362 11.216 10.7101 11.2138C10.4527 11.1921 10.2558 11.0322 10.2558 11.0322C10.226 11.008 10.1107 10.9105 10.0291 10.738C9.95176 10.5746 9.94419 10.426 9.94545 10.3471C9.94293 9.54155 9.9404 8.73642 9.93788 7.93085C9.93283 7.88232 9.91685 7.80215 9.85713 7.73412C9.7503 7.61192 9.57954 7.61669 9.44537 7.62059C9.30405 7.62449 9.15643 7.62882 9.07021 7.74105C9.00249 7.82902 9.00796 7.93779 9.01343 7.98502V10.514C9.01343 10.7493 9.07904 11.0608 9.29816 11.3568C9.54421 11.6892 9.89372 11.8374 10.0014 11.8785C10.2197 11.9622 10.4346 11.9856 10.5002 11.9921C10.6142 12.0038 10.7113 12.0042 10.7833 12.002C10.8552 12.0042 10.9523 12.0038 11.0663 11.9921C11.1319 11.9851 11.3468 11.9617 11.5651 11.8785C11.6728 11.8374 12.0223 11.6892 12.2684 11.3568C12.4871 11.0608 12.5531 10.7493 12.5531 10.514V7.98502C12.5586 7.93779 12.564 7.82902 12.4963 7.74105Z" fill="url(#paint6_linear_1216_5979)"/>
<path d="M10.2996 11.9453C10.3072 11.9466 10.3143 11.9488 10.321 11.9518L10.3088 11.9596L10.3 11.9453H10.2996Z" fill="white"/>
<path d="M22.2355 8.95815C22.1169 8.55212 21.8746 8.19418 21.5457 7.93938C21.1726 7.65078 20.71 7.49955 20.2452 7.48828C19.7805 7.49955 19.3178 7.65078 18.9448 7.93938C18.6155 8.19418 18.3732 8.55212 18.255 8.95815C17.9164 10.1238 18.4258 11.611 19.6446 11.9399C19.8415 11.9928 20.0438 12.0153 20.2452 12.0097C20.4471 12.0153 20.6494 11.9928 20.8458 11.9399C22.0647 11.611 22.574 10.1238 22.2355 8.95815ZM21.3308 10.2594C21.2033 10.8115 20.8475 11.4047 20.2452 11.4112C19.643 11.4047 19.2871 10.8115 19.1597 10.2594C19.0369 9.72775 19.0596 9.10158 19.3486 8.62708C19.5488 8.29818 19.8894 8.10362 20.2448 8.10102C20.6006 8.10362 20.9409 8.29861 21.1411 8.62708C21.43 9.10158 21.4528 9.72775 21.3299 10.2594H21.3308Z" fill="url(#paint7_linear_1216_5979)"/>
<defs>
<linearGradient id="paint0_linear_1216_5979" x1="17.0395" y1="12.9774" x2="32.7732" y2="8.28931" gradientUnits="userSpaceOnUse">
<stop offset="0.33" stop-color="#9C8837"/>
<stop offset="0.56" stop-color="#F7E59E"/>
<stop offset="0.6" stop-color="#F0DE96"/>
<stop offset="0.67" stop-color="#DECB80"/>
<stop offset="0.75" stop-color="#C0AC5D"/>
<stop offset="0.79" stop-color="#B39F4D"/>
</linearGradient>
<linearGradient id="paint1_linear_1216_5979" x1="7.32857" y1="10.2527" x2="4.38329" y2="8.08967" gradientUnits="userSpaceOnUse">
<stop offset="0.33" stop-color="#9C8837"/>
<stop offset="0.56" stop-color="#F7E59E"/>
<stop offset="0.6" stop-color="#F0DE96"/>
<stop offset="0.67" stop-color="#DECB80"/>
<stop offset="0.75" stop-color="#C0AC5D"/>
<stop offset="0.79" stop-color="#B39F4D"/>
</linearGradient>
<linearGradient id="paint2_linear_1216_5979" x1="6.25145" y1="11.7198" x2="3.30615" y2="9.55629" gradientUnits="userSpaceOnUse">
<stop offset="0.33" stop-color="#9C8837"/>
<stop offset="0.56" stop-color="#F7E59E"/>
<stop offset="0.6" stop-color="#F0DE96"/>
<stop offset="0.67" stop-color="#DECB80"/>
<stop offset="0.75" stop-color="#C0AC5D"/>
<stop offset="0.79" stop-color="#B39F4D"/>
</linearGradient>
<linearGradient id="paint3_linear_1216_5979" x1="7.53337" y1="10.8232" x2="4.16407" y2="8.27337" gradientUnits="userSpaceOnUse">
<stop offset="0.33" stop-color="#9C8837"/>
<stop offset="0.56" stop-color="#F7E59E"/>
<stop offset="0.6" stop-color="#F0DE96"/>
<stop offset="0.67" stop-color="#DECB80"/>
<stop offset="0.75" stop-color="#C0AC5D"/>
<stop offset="0.79" stop-color="#B39F4D"/>
</linearGradient>
<linearGradient id="paint4_linear_1216_5979" x1="7.10946" y1="10.5504" x2="4.1646" y2="8.38733" gradientUnits="userSpaceOnUse">
<stop offset="0.33" stop-color="#9C8837"/>
<stop offset="0.56" stop-color="#F7E59E"/>
<stop offset="0.6" stop-color="#F0DE96"/>
<stop offset="0.67" stop-color="#DECB80"/>
<stop offset="0.75" stop-color="#C0AC5D"/>
<stop offset="0.79" stop-color="#B39F4D"/>
</linearGradient>
<linearGradient id="paint5_linear_1216_5979" x1="18.009" y1="11.1697" x2="13.4707" y2="8.8335" gradientUnits="userSpaceOnUse">
<stop offset="0.33" stop-color="#9C8837"/>
<stop offset="0.56" stop-color="#F7E59E"/>
<stop offset="0.6" stop-color="#F0DE96"/>
<stop offset="0.67" stop-color="#DECB80"/>
<stop offset="0.75" stop-color="#C0AC5D"/>
<stop offset="0.79" stop-color="#B39F4D"/>
</linearGradient>
<linearGradient id="paint6_linear_1216_5979" x1="12.9892" y1="10.9447" x2="8.43437" y2="8.17669" gradientUnits="userSpaceOnUse">
<stop offset="0.33" stop-color="#9C8837"/>
<stop offset="0.56" stop-color="#F7E59E"/>
<stop offset="0.6" stop-color="#F0DE96"/>
<stop offset="0.67" stop-color="#DECB80"/>
<stop offset="0.75" stop-color="#C0AC5D"/>
<stop offset="0.79" stop-color="#B39F4D"/>
</linearGradient>
<linearGradient id="paint7_linear_1216_5979" x1="23.4055" y1="11.6509" x2="17.7519" y2="8.46599" gradientUnits="userSpaceOnUse">
<stop offset="0.33" stop-color="#9C8837"/>
<stop offset="0.56" stop-color="#F7E59E"/>
<stop offset="0.6" stop-color="#F0DE96"/>
<stop offset="0.67" stop-color="#DECB80"/>
<stop offset="0.75" stop-color="#C0AC5D"/>
<stop offset="0.79" stop-color="#B39F4D"/>
</linearGradient>
</defs>
</svg>
