<svg width="30" height="30" viewBox="0 0 30 30" fill="none" xmlns="http://www.w3.org/2000/svg">
<path d="M12.0035 7.10757C12.2223 6.4913 12.628 5.95765 13.1646 5.58018C13.7013 5.20271 14.3426 5 15 5C15.6574 5 16.2987 5.20271 16.8354 5.58018C17.372 5.95765 17.7777 6.4913 17.9965 7.10757M24 9.21256H6M22.2349 11.8438L21.7479 19.106C21.5605 21.8993 21.4673 23.296 20.5514 24.1475C19.6355 24.9989 18.2262 25 15.4098 25H14.5902C11.7738 25 10.3645 25 9.44859 24.1475C8.53271 23.296 8.43847 21.8993 8.25212 19.106L7.76506 11.8438M12.3529 14.475L12.8824 19.7375M17.6471 14.475L17.1176 19.7375" stroke="#FF5F5F" stroke-width="1.5" stroke-linecap="round"/>
</svg>
