<svg width="15" height="22" viewBox="0 0 15 22" fill="none" xmlns="http://www.w3.org/2000/svg">
<path fill-rule="evenodd" clip-rule="evenodd" d="M14.0752 8.91967C14.0752 11.5511 13.4917 13.512 12.3253 14.7898C11.1589 16.0676 9.35714 16.7062 6.92769 16.7062C4.65802 16.7062 2.93566 16.0673 1.76166 14.7898C0.587307 13.5123 0.000305176 11.5856 0.000305176 9.00963V0.367283C0.00099536 0.164975 0.160083 0.000711099 0.356441 0H4.47201C4.66871 0.000711099 4.8278 0.16462 4.82849 0.367283V9.19843C4.82849 10.2501 5.01726 11.0597 5.40169 11.6307C6.0936 12.5758 7.39805 12.7639 8.3153 12.051C8.45299 11.944 8.57723 11.8199 8.6849 11.6812C9.0607 11.1454 9.24774 10.3557 9.24671 9.3122V7.65854H14.0752V8.91932V8.91967Z" fill="#203E7A"/>
<path fill-rule="evenodd" clip-rule="evenodd" d="M13.7018 6.69251H9.24701V0.384349C9.2477 0.172086 9.41438 0.00035555 9.62005 0H10.2868C10.2882 2.15392 11.9832 3.89931 14.0738 3.89931H14.0749V6.69287H13.7015L13.7018 6.69251Z" fill="#203E7A"/>
<path fill-rule="evenodd" clip-rule="evenodd" d="M11.2358 0.000355354H13.7018C13.9078 0.00106645 14.0745 0.172797 14.0749 0.384704V2.92866C12.5068 2.92866 11.2354 1.61882 11.2354 0.00319982V0L11.2358 0.000355354Z" fill="#F4821F"/>
<path fill-rule="evenodd" clip-rule="evenodd" d="M0.808552 20.9035C1.35345 20.9035 1.61641 20.591 1.61641 20.132V19.0259H1.22646V20.121C1.22646 20.3599 1.03838 20.5537 0.80648 20.5537C0.574578 20.5537 0.386504 20.3599 0.386504 20.121V19.0259H0V20.1355C0 20.5889 0.26296 20.9042 0.807861 20.9042L0.808552 20.9035ZM3.97029 20.8701V20.5245H3.10618L3.95165 19.3402V19.0248H2.60683V19.3707H3.4523L2.60683 20.5515V20.8687L3.97029 20.8701ZM5.79203 20.9035C6.10503 20.911 6.39525 20.7353 6.54088 20.4498L6.21235 20.2866C6.13091 20.4495 5.96872 20.5526 5.79099 20.5547C5.46626 20.538 5.21607 20.2536 5.23229 19.919C5.24713 19.6075 5.48869 19.3587 5.79099 19.3434C5.96837 19.3466 6.13022 19.4493 6.21235 19.6114L6.54088 19.4454C6.39525 19.1603 6.10468 18.9853 5.79203 18.9946C5.2806 18.9789 4.85372 19.3931 4.83819 19.9201C4.82301 20.447 5.22504 20.8868 5.73647 20.9028C5.75476 20.9035 5.77339 20.9035 5.79168 20.9028L5.79203 20.9035ZM9.12217 20.8701L8.43233 19.0255H7.95472L7.26212 20.8701H7.69694L7.80978 20.5576H8.57761L8.6877 20.8701H9.12251H9.12217ZM8.4727 20.212H7.91435L8.19353 19.418L8.4727 20.212ZM11.6955 21.333L11.0385 20.1682C11.2807 20.1082 11.446 19.877 11.4305 19.6207C11.4422 19.3035 11.2024 19.0369 10.8946 19.0248C10.8728 19.0241 10.8511 19.0244 10.8293 19.0262H9.99146V20.8708H10.3728V20.2152H10.652L11.2579 21.3327H11.6955V21.333ZM10.7727 19.8696H10.3728V19.3718H10.7714C10.9049 19.3572 11.0243 19.4571 11.0385 19.5944C11.0526 19.7316 10.9556 19.855 10.8224 19.8696C10.8055 19.8714 10.7886 19.8714 10.7717 19.8696H10.7731H10.7727ZM13.1259 20.8704C13.687 20.8704 14.0763 20.5053 14.0763 19.9496C14.0763 19.3939 13.6864 19.0259 13.1259 19.0259H12.4199V20.8704H13.1259ZM13.1259 20.5249H12.8012V19.3718H13.1259C13.4144 19.3498 13.6657 19.573 13.6871 19.8703C13.6888 19.8966 13.6888 19.9233 13.6871 19.9496C13.6995 20.2543 13.47 20.5117 13.1742 20.5245C13.158 20.5252 13.1415 20.5252 13.1249 20.5245H13.1259V20.5249Z" fill="#233C7E"/>
<path fill-rule="evenodd" clip-rule="evenodd" d="M14.5394 18.9912V18.9955C14.5394 19.1853 14.3903 19.3389 14.2064 19.3393C14.0221 19.3393 13.8731 19.1857 13.8727 18.9962C13.8727 18.8063 14.0218 18.6527 14.2057 18.6523H14.5391V18.9912H14.5394Z" fill="#233C7E"/>
</svg>
